<svg width="143" height="143" viewBox="0 0 143 143" fill="none" xmlns="http://www.w3.org/2000/svg">
<mask id="path-1-inside-1" fill="white">
<path fill-rule="evenodd" clip-rule="evenodd" d="M80 0H62V60L0 60V78H62V143H80V78H143V60L80 60V0Z"/>
</mask>
<path d="M62 0V-1C61.4477 -1 61 -0.552285 61 0L62 0ZM80 0H81C81 -0.552285 80.5523 -1 80 -1V0ZM62 60V61C62.5523 61 63 60.5523 63 60H62ZM0 60L-6.15274e-08 59C-0.552285 59 -1 59.4477 -1 60H0ZM0 78H-1C-1 78.5523 -0.552285 79 0 79L0 78ZM62 78H63C63 77.4477 62.5523 77 62 77V78ZM62 143H61C61 143.552 61.4477 144 62 144V143ZM80 143V144C80.5523 144 81 143.552 81 143H80ZM80 78V77C79.4477 77 79 77.4477 79 78H80ZM143 78V79C143.552 79 144 78.5523 144 78H143ZM143 60H144C144 59.7348 143.895 59.4804 143.707 59.2929C143.52 59.1054 143.265 59 143 59V60ZM80 60H79C79 60.2652 79.1054 60.5196 79.2929 60.7071C79.4804 60.8946 79.7348 61 80 61V60ZM62 1H80V-1H62V1ZM63 60V0H61V60H63ZM6.15274e-08 61L62 61V59L-6.15274e-08 59L6.15274e-08 61ZM1 78V60H-1V78H1ZM62 77H0V79H62V77ZM63 143V78H61V143H63ZM80 142H62V144H80V142ZM79 78V143H81V78H79ZM143 77H80V79H143V77ZM142 60V78H144V60H142ZM80 61L143 61V59L80 59V61ZM79 0V60H81V0H79Z" fill="#D5D5D5" mask="url(#path-1-inside-1)"/>
</svg>
